HIERARCHY
ROOT hip
{
  OFFSET 55.9765 136.054 -89.7281
  CHANNELS 6 Xposition Yposition Zposition Zrotation Xrotation Yrotation
  JOINT abdomen
  {
    OFFSET 0 20.6881 -0.73152
    CHANNELS 3 Zrotation Xrotation Yrotation
    JOINT chest
    {
      OFFSET 0 11.7043 -0.48768
      CHANNELS 3 Zrotation Xrotation Yrotation
      JOINT neck
      {
        OFFSET 0 22.1894 -2.19456
        CHANNELS 3 Zrotation Xrotation Yrotation
        JOINT head
        {
          OFFSET -0.24384 7.07133 1.2192
          CHANNELS 3 Zrotation Xrotation Yrotation
          JOINT leftEye
          {
            OFFSET 4.14528 8.04674 8.04672
            CHANNELS 3 Zrotation Xrotation Yrotation
            End Site
            {
              OFFSET 1 0 0
            }
          }
          JOINT rightEye
          {
            OFFSET -3.6576 8.04674 8.04672
            CHANNELS 3 Zrotation Xrotation Yrotation
            End Site
            {
              OFFSET 1 0 0
            }
          }
        }
      }
      JOINT rCollar
      {
        OFFSET -2.68224 19.2634 -4.8768
        CHANNELS 3 Zrotation Xrotation Yrotation
        JOINT rShldr
        {
          OFFSET -8.77824 -1.95073 1.46304
          CHANNELS 3 Zrotation Xrotation Yrotation
          JOINT rForeArm
          {
            OFFSET -28.1742 -1.7115 0.48768
            CHANNELS 3 Zrotation Xrotation Yrotation
            JOINT rHand
            {
              OFFSET -22.5879 0.773209 7.07136
              CHANNELS 3 Zrotation Xrotation Yrotation
              JOINT rThumb1
              {
                OFFSET -1.2192 -0.487915 3.41376
                CHANNELS 3 Zrotation Xrotation Yrotation
                JOINT rThumb2
                {
                  OFFSET -3.37035 -0.52449 3.41376
                  CHANNELS 3 Zrotation Xrotation Yrotation
                  End Site
                  {
                    OFFSET -1.78271 -1.18214 1.43049
                  }
                }
              }
              JOINT rIndex1
              {
                OFFSET -7.75947 0.938293 5.60832
                CHANNELS 3 Zrotation Xrotation Yrotation
                JOINT rIndex2
                {
                  OFFSET -2.54057 -0.884171 1.56538
                  CHANNELS 3 Zrotation Xrotation Yrotation
                  End Site
                  {
                    OFFSET -1.62519 -0.234802 1.16502
                  }
                }
              }
              JOINT rMid1
              {
                OFFSET -8.24714 1.18213 3.41376
                CHANNELS 3 Zrotation Xrotation Yrotation
                JOINT rMid2
                {
                  OFFSET -3.10165 -0.590103 1.0647
                  CHANNELS 3 Zrotation Xrotation Yrotation
                  End Site
                  {
                    OFFSET -2.48547 -0.328903 0.83742
                  }
                }
              }
              JOINT rRing1
              {
                OFFSET -8.82822 0.546677 1.51678
                CHANNELS 3 Zrotation Xrotation Yrotation
                JOINT rRing2
                {
                  OFFSET -2.60934 -0.819778 -0.0198488
                  CHANNELS 3 Zrotation Xrotation Yrotation
                  End Site
                  {
                    OFFSET -2.33842 -0.294052 0.168128
                  }
                }
              }
              JOINT rPinky1
              {
                OFFSET -8.27202 -0.0477905 -0.4584
                CHANNELS 3 Zrotation Xrotation Yrotation
                JOINT rPinky2
                {
                  OFFSET -1.82734 -0.647385 -0.700984
                  CHANNELS 3 Zrotation Xrotation Yrotation
                  End Site
                  {
                    OFFSET -1.69225 -0.51767 -0.607171
                  }
                }
              }
            }
          }
        }
      }
      JOINT lCollar
      {
        OFFSET 2.68224 19.2634 -4.8768
        CHANNELS 3 Zrotation Xrotation Yrotation
        JOINT lShldr
        {
          OFFSET 8.77824 -1.95073 1.46304
          CHANNELS 3 Zrotation Xrotation Yrotation
          JOINT lForeArm
          {
            OFFSET 28.1742 -1.7115 0.48768
            CHANNELS 3 Zrotation Xrotation Yrotation
            JOINT lHand
            {
              OFFSET 22.5879 0.773209 7.07136
              CHANNELS 3 Zrotation Xrotation Yrotation
              JOINT lThumb1
              {
                OFFSET 1.2192 -0.487915 3.41376
                CHANNELS 3 Zrotation Xrotation Yrotation
                JOINT lThumb2
                {
                  OFFSET 3.37035 -0.52449 3.41376
                  CHANNELS 3 Zrotation Xrotation Yrotation
                  End Site
                  {
                    OFFSET 1.78271 -1.18214 1.43049
                  }
                }
              }
              JOINT lIndex1
              {
                OFFSET 7.75947 0.938293 5.60832
                CHANNELS 3 Zrotation Xrotation Yrotation
                JOINT lIndex2
                {
                  OFFSET 2.54057 -0.884171 1.56538
                  CHANNELS 3 Zrotation Xrotation Yrotation
                  End Site
                  {
                    OFFSET 1.62519 -0.234802 1.16502
                  }
                }
              }
              JOINT lMid1
              {
                OFFSET 8.24714 1.18213 3.41376
                CHANNELS 3 Zrotation Xrotation Yrotation
                JOINT lMid2
                {
                  OFFSET 3.10165 -0.590103 1.0647
                  CHANNELS 3 Zrotation Xrotation Yrotation
                  End Site
                  {
                    OFFSET 2.48547 -0.328903 0.83742
                  }
                }
              }
              JOINT lRing1
              {
                OFFSET 8.82822 0.546677 1.51678
                CHANNELS 3 Zrotation Xrotation Yrotation
                JOINT lRing2
                {
                  OFFSET 2.60934 -0.819778 -0.0198488
                  CHANNELS 3 Zrotation Xrotation Yrotation
                  End Site
                  {
                    OFFSET 2.33842 -0.294052 0.168128
                  }
                }
              }
              JOINT lPinky1
              {
                OFFSET 8.27202 -0.0477905 -0.4584
                CHANNELS 3 Zrotation Xrotation Yrotation
                JOINT lPinky2
                {
                  OFFSET 1.82734 -0.647385 -0.700984
                  CHANNELS 3 Zrotation Xrotation Yrotation
                  End Site
                  {
                    OFFSET 1.69225 -0.51767 -0.607171
                  }
                }
              }
            }
          }
        }
      }
    }
  }
  JOINT rButtock
  {
    OFFSET -8.77824 4.35084 1.2192
    CHANNELS 3 Zrotation Xrotation Yrotation
    JOINT rThigh
    {
      OFFSET 0 -1.70687 -2.19456
      CHANNELS 3 Zrotation Xrotation Yrotation
      JOINT rShin
      {
        OFFSET 0 -36.8199 0.73152
        CHANNELS 3 Zrotation Xrotation Yrotation
        JOINT rFoot
        {
          OFFSET 0.73152 -45.1104 -5.12064
          CHANNELS 3 Zrotation Xrotation Yrotation
          End Site
          {
            OFFSET -1.1221 -3.69964 12.103
          }
        }
      }
    }
  }
  JOINT lButtock
  {
    OFFSET 8.77824 4.35084 1.2192
    CHANNELS 3 Zrotation Xrotation Yrotation
    JOINT lThigh
    {
      OFFSET 0 -1.70687 -2.19456
      CHANNELS 3 Zrotation Xrotation Yrotation
      JOINT lShin
      {
        OFFSET 0 -36.8199 0.73152
        CHANNELS 3 Zrotation Xrotation Yrotation
        JOINT lFoot
        {
          OFFSET -0.73152 -45.1104 -5.12064
          CHANNELS 3 Zrotation Xrotation Yrotation
          End Site
          {
            OFFSET 1.1221 -3.69964 12.103
          }
        }
      }
    }
  }
}
MOTION
Frames:	8
Frame Time:	0.00833333
58.2928 82.692 20.7067 1.55736 -18.155 -178.01 -3.99411 -14.1339 1.08635 3.53691 13.5673 -0.208036 0.806297 12.1246 -2.49468 3.71954 -4.83333 -2.30277 -0 0 0 -0 0 0 -8.21911e-014 -4.83444e-013 6.60959e-015 80.8813 16.8294 2.1773 -19.4302 -12.3116 37.3141 -0.0443413 -5.99893 -0.846219 3.29045e-009 -6.02526e-009 4.82096e-010 5.69541e-009 -1.04183e-008 8.5068e-010 3.29045e-009 -6.02526e-009 4.82089e-010 7.73091 5.47488 0.417314 3.29045e-009 -6.02526e-009 4.82093e-010 2.90554 0.965183 0.102902 3.29046e-009 -6.02526e-009 4.82092e-010 10.2786 0.731801 0.0259123 3.29045e-009 -6.02526e-009 4.82102e-010 2.22167 -0.733487 -0.20892 -8.21099e-014 -4.83444e-013 6.31141e-015 -77.0687 16.7662 0.720462 11.0056 -4.77525 -19.7012 0.021933 4.22401 -0.594735 3.11646e-009 -2.41663e-009 -5.79601e-009 5.35902e-009 -4.17914e-009 -1.00343e-008 3.11645e-009 -2.41664e-009 -5.796e-009 -7.73091 5.47488 -0.417314 3.11646e-009 -2.41664e-009 -5.79601e-009 -2.90554 0.965183 -0.102902 3.11645e-009 -2.41664e-009 -5.796e-009 -10.2786 0.731801 -0.0259123 3.11646e-009 -2.41664e-009 -5.796e-009 -2.22167 -0.733487 0.20892 -2.03217e-016 0 -3.88251e-019 6.34064 -27.5924 9.10511 0.113966 19.2404 1.31041 -3.55402 -17.8144 -8.81368 2.03217e-016 0 3.88251e-019 -1.08536 -89.0832 0.784711 7.56612 83.1647 -8.39155 2.20419 -8.65856 5.83018 
58.2873 82.7068 20.3469 1.68559 -18.1335 -177.972 -4.18126 -14.042 1.11422 3.5011 13.574 -0.191501 0.721409 12.1397 -2.12253 3.7552 -4.88734 -2.59671 -0 0 0 -0 0 0 -6.60248e-014 -5.63505e-013 -1.37752e-015 80.8072 17.0914 2.37075 -19.4641 -12.3523 37.3945 -0.0439477 -5.97068 -0.842208 3.58472e-009 -6.99544e-009 3.77745e-010 6.20666e-009 -1.2098e-008 6.71699e-010 3.58472e-009 -6.99544e-009 3.77737e-010 7.73091 5.47488 0.417314 3.58471e-009 -6.99544e-009 3.77743e-010 2.90554 0.965183 0.102902 3.58472e-009 -6.99544e-009 3.77741e-010 10.2786 0.731801 0.0259123 3.58472e-009 -6.99544e-009 3.77751e-010 2.22167 -0.733487 -0.20892 -6.59881e-014 -5.63505e-013 -1.68035e-015 -77.0244 16.5018 0.70496 10.9593 -4.74505 -19.6131 0.0228166 4.30983 -0.606863 3.35591e-009 -2.846e-009 -6.7814e-009 5.7677e-009 -4.92197e-009 -1.17387e-008 3.35591e-009 -2.846e-009 -6.78139e-009 -7.73091 5.47488 -0.417314 3.35591e-009 -2.846e-009 -6.7814e-009 -2.90554 0.965183 -0.102902 3.35591e-009 -2.846e-009 -6.78139e-009 -10.2786 0.731801 -0.0259123 3.35592e-009 -2.846e-009 -6.78139e-009 -2.22167 -0.733487 0.20892 -2.03217e-016 0 -3.88251e-019 6.21345 -27.2788 9.10276 0.117625 19.1892 1.32608 -3.62359 -18.0044 -8.90608 2.03217e-016 0 3.88251e-019 -2.46684 -89.1007 -0.503542 6.27424 81.9648 -7.10107 2.1808 -8.54874 5.78716 
58.2759 82.7232 19.9532 1.79262 -18.102 -177.939 -4.33941 -13.9473 1.13329 3.45613 13.5791 -0.176253 0.616863 12.1767 -1.58995 3.74274 -4.93969 -3.04641 -0 0 0 -0 0 0 -3.05716e-014 -5.93571e-013 -1.35049e-014 80.7234 17.4061 2.54615 -19.4985 -12.3937 37.4768 -0.0441155 -5.98184 -0.843795 3.50192e-009 -7.3597e-009 1.59568e-010 6.06577e-009 -1.27307e-008 2.9386e-010 3.50192e-009 -7.3597e-009 1.59558e-010 7.73091 5.47488 0.417314 3.50192e-009 -7.3597e-009 1.59568e-010 2.90554 0.965183 0.102902 3.50192e-009 -7.3597e-009 1.59565e-010 10.2786 0.731801 0.0259123 3.50192e-009 -7.3597e-009 1.59574e-010 2.22167 -0.733487 -0.20892 -3.05877e-014 -5.93571e-013 -1.38155e-014 -76.9904 16.2048 0.688894 10.9128 -4.71484 -19.5247 0.0241915 4.4361 -0.624714 3.22307e-009 -3.00686e-009 -7.18253e-009 5.53537e-009 -5.20036e-009 -1.24312e-008 3.22306e-009 -3.00686e-009 -7.18251e-009 -7.73091 5.47488 -0.417314 3.22307e-009 -3.00686e-009 -7.18253e-009 -2.90554 0.965183 -0.102902 3.22306e-009 -3.00686e-009 -7.18252e-009 -10.2786 0.731801 -0.0259123 3.22307e-009 -3.00686e-009 -7.18252e-009 -2.22167 -0.733487 0.20892 -2.03217e-016 0 -3.88251e-019 6.1106 -26.9445 9.10577 0.120689 19.1332 1.3386 -3.69571 -18.2148 -8.99873 2.03217e-016 0 3.88251e-019 -3.97205 -89.0382 -1.93592 5.33958 80.786 -6.16556 2.14507 -8.42494 5.70945 
58.2517 82.7281 19.5509 1.88226 -18.0687 -177.92 -4.47941 -13.8522 1.15227 3.41189 13.5882 -0.160986 0.511038 12.2153 -1.06441 3.72237 -4.98012 -3.50909 -0 0 0 -0 0 0 8.83697e-015 -5.75731e-013 -2.49552e-014 80.6416 17.7378 2.69487 -19.5395 -12.4433 37.5743 -0.0446469 -6.0184 -0.848989 3.13558e-009 -7.12074e-009 -6.62076e-011 5.43374e-009 -1.23198e-008 -9.85585e-011 3.13558e-009 -7.12073e-009 -6.62193e-011 7.73091 5.47488 0.417314 3.13557e-009 -7.12074e-009 -6.62061e-011 2.90554 0.965183 0.102902 3.13558e-009 -7.12074e-009 -6.62093e-011 10.2786 0.731801 0.0259123 3.13558e-009 -7.12073e-009 -6.62014e-011 2.22167 -0.733487 -0.20892 8.77468e-015 -5.75731e-013 -2.52674e-014 -76.9552 15.9086 0.666699 10.8673 -4.68536 -19.4382 0.0259031 4.58814 -0.646218 2.82504e-009 -2.90825e-009 -7.01059e-009 4.84757e-009 -5.02992e-009 -1.21319e-008 2.82503e-009 -2.90826e-009 -7.01057e-009 -7.73091 5.47488 -0.417314 2.82504e-009 -2.90826e-009 -7.01058e-009 -2.90554 0.965183 -0.102902 2.82503e-009 -2.90826e-009 -7.01058e-009 -10.2786 0.731801 -0.0259123 2.82504e-009 -2.90826e-009 -7.01058e-009 -2.22167 -0.733487 0.20892 -2.03217e-016 0 -3.88251e-019 6.01536 -26.617 9.08908 0.123444 19.0923 1.348 -3.76888 -18.4364 -9.08965 2.03217e-016 0 3.88251e-019 -5.77668 -88.9169 -3.69238 4.64144 79.6452 -5.46399 2.09279 -8.24301 5.5928 
58.2245 82.7436 19.1815 1.95837 -18.0421 -177.923 -4.61216 -13.7593 1.17986 3.37826 13.6074 -0.144392 0.423358 12.2367 -0.713614 3.73508 -4.99877 -3.84194 -0 0 0 -0 0 0 3.68698e-014 -5.1207e-013 -3.0911e-014 80.574 18.0508 2.80808 -19.5928 -12.5082 37.7005 -0.0453485 -6.06636 -0.855803 2.57922e-009 -6.28124e-009 -1.93355e-010 4.47152e-009 -1.08689e-008 -3.21278e-010 2.57923e-009 -6.28124e-009 -1.93368e-010 7.73091 5.47488 0.417314 2.57922e-009 -6.28124e-009 -1.93352e-010 2.90554 0.965183 0.102902 2.57922e-009 -6.28124e-009 -1.93356e-010 10.2786 0.731801 0.0259123 2.57922e-009 -6.28124e-009 -1.93349e-010 2.22167 -0.733487 -0.20892 3.67824e-014 -5.1207e-013 -3.12092e-014 -76.907 15.6465 0.632819 10.824 -4.65739 -19.3561 0.0277673 4.7513 -0.669301 2.26895e-009 -2.55922e-009 -6.27675e-009 3.88982e-009 -4.42628e-009 -1.08606e-008 2.26894e-009 -2.55922e-009 -6.27673e-009 -7.73091 5.47488 -0.417314 2.26895e-009 -2.55922e-009 -6.27675e-009 -2.90554 0.965183 -0.102902 2.26894e-009 -2.55922e-009 -6.27674e-009 -10.2786 0.731801 -0.0259123 2.26895e-009 -2.55922e-009 -6.27675e-009 -2.22167 -0.733487 0.20892 -2.03217e-016 0 -3.88251e-019 5.9116 -26.3241 9.02776 0.126169 19.0862 1.35432 -3.84152 -18.6602 -9.17684 2.03217e-016 0 3.88251e-019 -8.02506 -88.7569 -5.92155 4.10783 78.5589 -4.92402 2.02035 -7.95874 5.43308 
58.2 82.7514 18.8411 2.02464 -18.0136 -177.961 -4.74647 -13.6535 1.21954 3.36226 13.6415 -0.125963 0.361245 12.2327 -0.614555 3.79076 -4.99357 -3.99647 -0 0 0 -0 0 0 4.73138e-014 -3.58509e-013 -2.8962e-014 80.528 18.3316 2.87139 -19.6674 -12.5996 37.8772 -0.0461938 -6.1223 -0.863756 1.65338e-009 -4.36952e-009 -1.74782e-010 2.86776e-009 -7.56145e-009 -2.9375e-010 1.65338e-009 -4.36952e-009 -1.74795e-010 7.73091 5.47488 0.417314 1.65338e-009 -4.36952e-009 -1.74778e-010 2.90554 0.965183 0.102902 1.65338e-009 -4.36952e-009 -1.74783e-010 10.2786 0.731801 0.0259123 1.65338e-009 -4.36952e-009 -1.74776e-010 2.22167 -0.733487 -0.20892 4.72359e-014 -3.58509e-013 -2.9214e-014 -76.8397 15.3982 0.570823 10.7715 -4.62359 -19.2565 0.0302879 4.96883 -0.700088 1.37788e-009 -1.75934e-009 -4.53662e-009 2.35887e-009 -3.04283e-009 -7.84844e-009 1.37787e-009 -1.75934e-009 -4.53661e-009 -7.73091 5.47488 -0.417314 1.37788e-009 -1.75934e-009 -4.53662e-009 -2.90554 0.965183 -0.102902 1.37787e-009 -1.75934e-009 -4.53662e-009 -10.2786 0.731801 -0.0259123 1.37789e-009 -1.75934e-009 -4.53662e-009 -2.22167 -0.733487 0.20892 -2.03217e-016 0 -3.88251e-019 5.78084 -26.0836 8.88722 0.12924 19.1525 1.35646 -3.91451 -18.896 -9.25465 2.03217e-016 0 3.88251e-019 -10.9747 -88.5443 -8.8856 3.68915 77.5261 -4.49431 1.92073 -7.50824 5.21994 
58.1837 82.7377 18.4585 2.07821 -17.9823 -178.026 -4.87463 -13.5389 1.26625 3.35713 13.6863 -0.106443 0.313895 12.2149 -0.667103 3.86837 -4.96978 -4.05229 -0 0 0 -0 0 0 4.9054e-014 -1.28813e-013 -2.20527e-014 80.4967 18.6007 2.89318 -19.757 -12.7099 38.0914 -0.0472974 -6.1936 -0.873896 3.76303e-010 -1.5416e-009 -7.33982e-011 6.54683e-010 -2.66813e-009 -1.24724e-010 3.76308e-010 -1.5416e-009 -7.34094e-011 7.73091 5.47488 0.417314 3.76301e-010 -1.5416e-009 -7.33923e-011 2.90554 0.965183 0.102902 3.76305e-010 -1.5416e-009 -7.33978e-011 10.2786 0.731801 0.0259123 3.76299e-010 -1.5416e-009 -7.33917e-011 2.22167 -0.733487 -0.20892 4.90091e-014 -1.28813e-013 -2.22359e-014 -76.7607 15.1555 0.488754 10.7131 -4.58604 -19.1458 0.0335847 5.23283 -0.737486 1.63205e-010 -5.71403e-010 -1.93337e-009 2.73356e-010 -9.8816e-010 -3.34283e-009 1.63198e-010 -5.71403e-010 -1.93335e-009 -7.73091 5.47488 -0.417314 1.63207e-010 -5.71404e-010 -1.93337e-009 -2.90554 0.965183 -0.102902 1.63197e-010 -5.71404e-010 -1.93336e-009 -10.2786 0.731801 -0.0259123 1.6321e-010 -5.71403e-010 -1.93337e-009 -2.22167 -0.733487 0.20892 -2.03217e-016 0 -3.88251e-019 5.63748 -25.877 8.69038 0.132405 19.2699 1.35478 -3.98822 -19.1444 -9.3259 2.03217e-016 0 3.88251e-019 -13.7331 -88.2717 -11.6888 3.35323 76.5404 -4.1434 1.80151 -6.93206 4.95949 
58.166 82.7254 18.0447 2.11299 -17.968 -178.095 -4.98277 -13.4459 1.31595 3.35211 13.7338 -0.0864124 0.273911 12.1947 -0.773375 3.96274 -4.92876 -4.05867 -0 0 0 -0 0 0 4.94058e-014 8.81612e-014 -1.33978e-014 80.4717 18.8733 2.89864 -19.8452 -12.8187 38.3041 -0.0486759 -6.28237 -0.886523 -8.6188e-010 1.25821e-009 5.20209e-011 -1.49128e-009 2.17698e-009 8.61255e-011 -8.61877e-010 1.25821e-009 5.2011e-011 7.73091 5.47488 0.417314 -8.61883e-010 1.25821e-009 5.20276e-011 2.90554 0.965183 0.102902 -8.6188e-010 1.25821e-009 5.20217e-011 10.2786 0.731801 0.0259123 -8.61888e-010 1.25821e-009 5.20275e-011 2.22167 -0.733487 -0.20892 4.93954e-014 8.81608e-014 -1.35201e-014 -76.679 14.9704 0.4176 10.6719 -4.55971 -19.068 0.0365521 5.45189 -0.768553 -9.85565e-010 6.00743e-010 6.40488e-010 -1.69838e-009 1.0393e-009 1.11179e-009 -9.85572e-010 6.00746e-010 6.40501e-010 -7.73091 5.47488 -0.417314 -9.85562e-010 6.00744e-010 6.40488e-010 -2.90554 0.965183 -0.102902 -9.85572e-010 6.00743e-010 6.40488e-010 -10.2786 0.731801 -0.0259123 -9.85558e-010 6.00744e-010 6.40478e-010 -2.22167 -0.733487 0.20892 -2.03217e-016 0 -3.88251e-019 5.51433 -25.6771 8.49849 0.134985 19.3699 1.35148 -4.06025 -19.383 -9.40115 2.03217e-016 0 3.88251e-019 -15.476 -87.9729 -13.4998 3.0809 75.6107 -3.85555 1.67999 -6.34269 4.67198 
